<svg width="59" height="14" viewBox="0 0 59 14" fill="none" xmlns="http://www.w3.org/2000/svg">
<path d="M4.176 11.744C3.44 11.744 2.808 11.6053 2.28 11.328C1.75733 11.0507 1.35467 10.6133 1.072 10.016C0.794667 9.41867 0.656 8.64 0.656 7.68C0.656 6.73067 0.741333 5.87733 0.912 5.12C1.088 4.36267 1.33333 3.70133 1.648 3.136C1.96267 2.57067 2.33867 2.10133 2.776 1.728C3.21333 1.35467 3.69867 1.07467 4.232 0.888C4.76533 0.701333 5.33333 0.608 5.936 0.608C6.704 0.608 7.26667 0.754666 7.624 1.048C7.98133 1.336 8.16 1.70133 8.16 2.144C8.16 2.384 8.11733 2.584 8.032 2.744C7.952 2.89867 7.832 3.03467 7.672 3.152C7.512 3.264 7.31733 3.376 7.088 3.488C6.85867 3.59467 6.59733 3.71733 6.304 3.856C5.73333 4.128 5.19733 4.416 4.696 4.72C4.19467 5.01867 3.75467 5.344 3.376 5.696C2.99733 6.048 2.69867 6.43733 2.48 6.864C2.26667 7.28533 2.16 7.75467 2.16 8.272C2.16 8.784 2.248 9.20533 2.424 9.536C2.60533 9.86667 2.85867 10.112 3.184 10.272C3.50933 10.432 3.89333 10.512 4.336 10.512C4.87467 10.512 5.39733 10.424 5.904 10.248C6.416 10.0667 6.83733 9.808 7.168 9.472C7.49867 9.136 7.664 8.73067 7.664 8.256C7.664 8.04267 7.64 7.86933 7.592 7.736C7.544 7.60267 7.464 7.50667 7.352 7.448C7.24 7.384 7.088 7.35467 6.896 7.36C6.77867 7.36533 6.664 7.37067 6.552 7.376C6.44533 7.376 6.33067 7.376 6.208 7.376C5.91467 7.38133 5.68 7.32267 5.504 7.2C5.33333 7.07733 5.248 6.88533 5.248 6.624C5.248 6.32 5.35467 6.09867 5.568 5.96C5.78133 5.816 6.048 5.76 6.368 5.792C6.624 5.81333 6.888 5.84267 7.16 5.88C7.43733 5.91733 7.68 5.952 7.888 5.984C8.25067 6.03733 8.49867 6.14667 8.632 6.312C8.76533 6.47733 8.864 6.768 8.928 7.184C8.94933 7.32267 8.97333 7.49867 9 7.712C9.032 7.92533 9.06667 8.16267 9.104 8.424C9.11467 8.50933 9.12533 8.59733 9.136 8.688C9.152 8.77333 9.16533 8.86133 9.176 8.952C9.18133 9.00533 9.18667 9.06133 9.192 9.12C9.20267 9.17333 9.21067 9.22933 9.216 9.288C9.22667 9.34133 9.23467 9.39733 9.24 9.456C9.25067 9.54133 9.26133 9.62933 9.272 9.72C9.288 9.80533 9.30133 9.89333 9.312 9.984C9.32267 10.0693 9.33333 10.152 9.344 10.232C9.35467 10.312 9.36533 10.392 9.376 10.472C9.38667 10.5573 9.39733 10.6427 9.408 10.728C9.41867 10.8133 9.42933 10.896 9.44 10.976C9.472 11.248 9.50133 11.4987 9.528 11.728C9.56 11.9573 9.584 12.1547 9.6 12.32C9.664 12.8853 9.56533 13.304 9.304 13.576C9.04267 13.848 8.74667 13.984 8.416 13.984C8.10667 13.984 7.824 13.864 7.568 13.624C7.312 13.3893 7.20533 13.0507 7.248 12.608C7.27467 12.3093 7.304 12.088 7.336 11.944C7.368 11.8 7.38667 11.6373 7.392 11.456C7.40267 11.328 7.39733 11.224 7.376 11.144C7.36 11.064 7.30667 11.024 7.216 11.024C7.13067 11.024 7.01333 11.0613 6.864 11.136C6.71467 11.2053 6.52 11.288 6.28 11.384C6.04 11.48 5.74667 11.5653 5.4 11.64C5.05867 11.7093 4.65067 11.744 4.176 11.744ZM5.664 2.944C5.85067 2.944 5.98933 2.888 6.08 2.776C6.176 2.664 6.224 2.512 6.224 2.32C6.224 2.16 6.176 2.032 6.08 1.936C5.98933 1.84 5.83467 1.792 5.616 1.792C5.472 1.792 5.344 1.84267 5.232 1.944C5.12533 2.04 5.072 2.176 5.072 2.352C5.072 2.528 5.12 2.672 5.216 2.784C5.31733 2.89067 5.46667 2.944 5.664 2.944ZM3.792 3.92C4.096 3.92 4.312 3.85867 4.44 3.736C4.57333 3.61333 4.64 3.44533 4.64 3.232C4.64 2.99733 4.568 2.808 4.424 2.664C4.28 2.52 4.096 2.448 3.872 2.448C3.64267 2.448 3.46667 2.52 3.344 2.664C3.22667 2.808 3.168 2.99733 3.168 3.232C3.168 3.44 3.23467 3.608 3.368 3.736C3.50133 3.85867 3.64267 3.92 3.792 3.92ZM2.544 5.184C2.688 5.184 2.80533 5.136 2.896 5.04C2.992 4.93867 3.04 4.82133 3.04 4.688C3.04 4.464 2.98667 4.29867 2.88 4.192C2.77333 4.08533 2.63467 4.032 2.464 4.032C2.26667 4.032 2.12 4.08533 2.024 4.192C1.93333 4.29867 1.888 4.45333 1.888 4.656C1.888 4.816 1.944 4.944 2.056 5.04C2.17333 5.136 2.336 5.184 2.544 5.184ZM5.68 9.216C5.48267 9.264 5.25867 9.30667 5.008 9.344C4.75733 9.38133 4.52267 9.41333 4.304 9.44C4.01067 9.472 3.78667 9.432 3.632 9.32C3.48267 9.208 3.408 9.04 3.408 8.816C3.408 8.64533 3.46933 8.50667 3.592 8.4C3.72 8.29333 3.93067 8.22933 4.224 8.208C4.464 8.192 4.70933 8.18133 4.96 8.176C5.21067 8.16533 5.44 8.16 5.648 8.16C5.88267 8.16 6.05867 8.20267 6.176 8.288C6.29333 8.37333 6.352 8.50133 6.352 8.672C6.352 8.8 6.296 8.90933 6.184 9C6.072 9.08533 5.904 9.15733 5.68 9.216ZM4.528 1.312C4.544 1.344 4.56 1.37333 4.576 1.4C4.592 1.42667 4.608 1.456 4.624 1.488C4.688 1.6 4.68533 1.70667 4.616 1.808C4.552 1.90933 4.45867 1.984 4.336 2.032C4.20267 2.096 4.064 2.12 3.92 2.104C3.776 2.08267 3.68 2.00533 3.632 1.872C3.616 1.82933 3.60267 1.792 3.592 1.76C3.58133 1.72267 3.568 1.68533 3.552 1.648C3.51467 1.536 3.528 1.432 3.592 1.336C3.656 1.23467 3.744 1.15733 3.856 1.104C3.968 1.056 4.088 1.04533 4.216 1.072C4.344 1.09333 4.448 1.17333 4.528 1.312ZM2.88 2.912L2.08 3.632C1.968 3.53067 1.888 3.44 1.84 3.36C1.792 3.27467 1.77867 3.18933 1.8 3.104C1.82133 3.01867 1.88267 2.92267 1.984 2.816C2.176 2.64 2.336 2.57067 2.464 2.608C2.592 2.64 2.73067 2.74133 2.88 2.912ZM11.4628 10.736C11.4574 10.6293 11.4494 10.5253 11.4388 10.424C11.4334 10.3173 11.4254 10.2133 11.4148 10.112C11.4094 10.048 11.4041 9.984 11.3988 9.92C11.3934 9.856 11.3881 9.792 11.3828 9.728C11.3774 9.664 11.3721 9.6 11.3668 9.536C11.3668 9.47733 11.3641 9.41867 11.3588 9.36C11.3588 9.30133 11.3561 9.24533 11.3508 9.192C11.3454 9.13333 11.3401 9.07733 11.3348 9.024C11.3188 8.848 11.3054 8.672 11.2948 8.496C11.2841 8.32 11.2708 8.144 11.2548 7.968C11.2548 7.888 11.2521 7.808 11.2468 7.728C11.2414 7.648 11.2334 7.568 11.2228 7.488C11.2174 7.42933 11.2121 7.37333 11.2068 7.32C11.2068 7.26133 11.2041 7.20533 11.1988 7.152C11.1988 7.09333 11.1961 7.03467 11.1908 6.976C11.1428 6.208 11.0948 5.43733 11.0468 4.664C11.0041 3.89067 10.9614 3.12 10.9188 2.352C10.9028 2.02133 10.9561 1.73333 11.0788 1.488C11.2014 1.23733 11.4254 1.04533 11.7508 0.912C12.0814 0.773333 12.5454 0.704 13.1428 0.704C14.3961 0.704 15.4494 0.914666 16.3028 1.336C17.1614 1.752 17.8094 2.39733 18.2468 3.272C18.6841 4.14133 18.9028 5.25867 18.9028 6.624C18.9028 7.73867 18.6948 8.712 18.2788 9.544C17.8681 10.3707 17.2681 11.0133 16.4788 11.472C15.6894 11.9307 14.7268 12.16 13.5908 12.16C13.1001 12.16 12.7028 12.1253 12.3988 12.056C12.1001 11.992 11.8761 11.8587 11.7268 11.656C11.5828 11.4533 11.4948 11.1467 11.4628 10.736ZM12.6468 8.8C12.6628 9.104 12.7401 9.312 12.8788 9.424C13.0174 9.53067 13.2174 9.584 13.4788 9.584C13.9374 9.584 14.3588 9.44267 14.7428 9.16C15.1321 8.872 15.4681 8.49867 15.7508 8.04C16.0388 7.576 16.2628 7.07467 16.4228 6.536C16.5828 5.992 16.6628 5.46667 16.6628 4.96C16.6628 4.48533 16.5881 4.06133 16.4388 3.688C16.2894 3.30933 16.0788 2.98667 15.8068 2.72C15.5348 2.448 15.2148 2.24267 14.8468 2.104C14.4841 1.96 14.0868 1.888 13.6548 1.888C13.1854 1.888 12.8654 1.99467 12.6948 2.208C12.5294 2.416 12.4494 2.74133 12.4548 3.184C12.4708 4.11733 12.4948 5.05333 12.5268 5.992C12.5588 6.92533 12.5988 7.86133 12.6468 8.8ZM16.8228 9.888C17.0468 9.888 17.2174 9.82667 17.3348 9.704C17.4521 9.576 17.5108 9.42933 17.5108 9.264C17.5108 9.02933 17.4414 8.84 17.3028 8.696C17.1694 8.552 16.9934 8.48 16.7748 8.48C16.5774 8.48 16.4148 8.54933 16.2868 8.688C16.1641 8.82133 16.1028 8.99733 16.1028 9.216C16.1028 9.424 16.1694 9.58933 16.3028 9.712C16.4361 9.82933 16.6094 9.888 16.8228 9.888ZM15.1588 11.12C15.3614 11.12 15.5134 11.064 15.6148 10.952C15.7161 10.84 15.7668 10.7093 15.7668 10.56C15.7668 10.3733 15.7161 10.2293 15.6148 10.128C15.5188 10.0213 15.4094 9.968 15.2868 9.968C15.0468 9.968 14.8734 10.0187 14.7668 10.12C14.6654 10.2213 14.6148 10.3413 14.6148 10.48C14.6148 10.6773 14.6654 10.8347 14.7668 10.952C14.8681 11.064 14.9988 11.12 15.1588 11.12ZM17.7028 7.872C17.8734 7.872 18.0014 7.82133 18.0868 7.72C18.1721 7.61867 18.2148 7.472 18.2148 7.28C18.2148 7.10933 18.1694 6.97333 18.0788 6.872C17.9881 6.77067 17.8254 6.72 17.5908 6.72C17.4468 6.72 17.3214 6.76533 17.2148 6.856C17.1134 6.94667 17.0628 7.07733 17.0628 7.248C17.0628 7.472 17.1108 7.632 17.2068 7.728C17.3081 7.824 17.4734 7.872 17.7028 7.872ZM10.7108 2.96C11.0948 2.96533 11.5081 2.98133 11.9508 3.008C12.3934 3.03467 12.7428 3.06133 12.9988 3.088C13.4254 3.12 13.7108 3.176 13.8548 3.256C13.9988 3.336 14.0708 3.46133 14.0708 3.632C14.0708 3.81333 13.9934 3.94133 13.8388 4.016C13.6841 4.08533 13.4308 4.128 13.0788 4.144C12.8601 4.14933 12.6068 4.152 12.3188 4.152C12.0308 4.152 11.7454 4.14933 11.4628 4.144C11.1801 4.13867 10.9348 4.13333 10.7268 4.128C10.3588 4.112 10.0868 4.05867 9.91075 3.968C9.74008 3.87733 9.65475 3.73333 9.65475 3.536C9.65475 3.31733 9.75075 3.16533 9.94275 3.08C10.1348 2.98933 10.3908 2.94933 10.7108 2.96ZM10.5668 5.248C10.9294 5.2 11.3401 5.14933 11.7988 5.096C12.2628 5.03733 12.6574 4.99733 12.9828 4.976C13.3774 4.944 13.6628 4.97067 13.8388 5.056C14.0148 5.136 14.1028 5.28 14.1028 5.488C14.1028 5.68533 14.0201 5.83467 13.8548 5.936C13.6948 6.032 13.4254 6.096 13.0468 6.128C12.7588 6.16 12.3828 6.192 11.9188 6.224C11.4601 6.25067 11.0414 6.272 10.6628 6.288C10.3268 6.304 10.0868 6.272 9.94275 6.192C9.80408 6.10667 9.73475 5.984 9.73475 5.824C9.73475 5.664 9.80142 5.53867 9.93475 5.448C10.0681 5.352 10.2788 5.28533 10.5668 5.248ZM13.4308 10.96C13.4788 10.992 13.5241 11.032 13.5668 11.08C13.6148 11.128 13.6494 11.168 13.6708 11.2C13.7081 11.248 13.7348 11.2933 13.7508 11.336C13.7668 11.3787 13.7748 11.4213 13.7748 11.464C13.7748 11.5813 13.7268 11.6827 13.6308 11.768C13.5401 11.848 13.4334 11.8933 13.3108 11.904C13.1881 11.9147 13.0788 11.8773 12.9828 11.792C12.9508 11.7653 12.9188 11.7333 12.8868 11.696C12.8601 11.6587 12.8334 11.6213 12.8068 11.584C12.7748 11.5413 12.7508 11.496 12.7348 11.448C12.7241 11.4 12.7188 11.3573 12.7188 11.32C12.7188 11.144 12.7988 11.0133 12.9588 10.928C13.1188 10.8373 13.2761 10.848 13.4308 10.96ZM20.1846 10.4C20.2326 10.0107 20.302 9.44267 20.3926 8.696C20.4886 7.944 20.5926 7.14667 20.7046 6.304C20.7153 6.24 20.7233 6.17867 20.7286 6.12C20.7393 6.056 20.7473 5.992 20.7526 5.928C20.7633 5.864 20.7713 5.8 20.7766 5.736C20.7873 5.64533 20.798 5.55733 20.8086 5.472C20.8246 5.38667 20.838 5.30133 20.8486 5.216C20.8593 5.104 20.8726 4.99467 20.8886 4.888C20.9046 4.776 20.9206 4.66667 20.9366 4.56C20.9526 4.44267 20.966 4.328 20.9766 4.216C20.9926 4.104 21.0086 3.99467 21.0246 3.888C21.0406 3.78133 21.0566 3.67467 21.0726 3.568C21.0886 3.46133 21.102 3.35733 21.1126 3.256C21.1606 2.904 21.2033 2.584 21.2406 2.296C21.2833 2.008 21.3206 1.76533 21.3526 1.568C21.4273 1.104 21.5713 0.765333 21.7846 0.551999C22.0033 0.333332 22.2806 0.223999 22.6166 0.223999C22.9633 0.223999 23.2353 0.343999 23.4326 0.584C23.6353 0.818666 23.7953 1.15733 23.9126 1.6C23.9286 1.648 23.9446 1.69867 23.9606 1.752C23.9766 1.8 23.9873 1.84533 23.9926 1.888C23.3313 2.00533 22.886 2.13067 22.6566 2.264C22.4326 2.39733 22.3393 2.58133 22.3766 2.816C22.4193 3.056 22.5953 3.17067 22.9046 3.16C23.214 3.144 23.6726 3.056 24.2806 2.896C24.3286 3.04533 24.374 3.20533 24.4166 3.376C24.4593 3.54133 24.4993 3.712 24.5366 3.888C23.7366 3.984 23.174 4.09333 22.8486 4.216C22.5233 4.33333 22.3766 4.51733 22.4086 4.768C22.4513 5.04 22.6513 5.17333 23.0086 5.168C23.3713 5.15733 23.9553 5.024 24.7606 4.768C24.8993 5.33867 25.0326 5.904 25.1606 6.464C25.2886 7.01867 25.422 7.536 25.5606 8.016C25.6406 8.28267 25.758 8.416 25.9126 8.416C26.0833 8.416 26.2006 8.27733 26.2646 8C26.3873 7.488 26.5153 6.912 26.6486 6.272C26.782 5.632 26.9153 4.98133 27.0486 4.32C27.1873 3.65867 27.3206 3.04 27.4486 2.464C27.5926 1.808 27.798 1.35467 28.0646 1.104C28.3313 0.847999 28.6646 0.719999 29.0646 0.719999C29.4806 0.719999 29.7953 0.858666 30.0086 1.136C30.2273 1.41333 30.3713 1.82933 30.4406 2.384C30.606 3.68533 30.7606 5.06933 30.9046 6.536C31.054 7.99733 31.1873 9.46133 31.3046 10.928C31.3366 11.3173 31.278 11.6187 31.1286 11.832C30.9846 12.04 30.7606 12.144 30.4566 12.144C30.1526 12.144 29.9286 12.0453 29.7846 11.848C29.6406 11.6453 29.566 11.36 29.5606 10.992C29.55 10.2453 29.5553 9.54933 29.5766 8.904C29.598 8.25333 29.598 7.58933 29.5766 6.912C29.566 6.50133 29.4406 6.26933 29.2006 6.216C28.966 6.16267 28.75 6.288 28.5526 6.592C28.27 7.02933 27.9953 7.48 27.7286 7.944C27.4673 8.408 27.1713 8.89067 26.8406 9.392C26.7233 9.568 26.582 9.70667 26.4166 9.808C26.2566 9.904 26.0673 9.952 25.8486 9.952C25.6353 9.952 25.4433 9.89333 25.2726 9.776C25.102 9.65867 24.9366 9.49867 24.7766 9.296C24.4246 8.84267 24.0913 8.392 23.7766 7.944C23.462 7.49067 23.1766 7.10933 22.9206 6.8C22.6966 6.528 22.4806 6.41867 22.2726 6.472C22.0646 6.52 21.9553 6.72 21.9446 7.072C21.934 7.38667 21.9206 7.74133 21.9046 8.136C21.894 8.53067 21.878 8.93867 21.8566 9.36C21.8406 9.776 21.822 10.1813 21.8006 10.576C21.7846 10.928 21.71 11.1947 21.5766 11.376C21.4433 11.5573 21.2353 11.648 20.9526 11.648C20.75 11.648 20.5873 11.6027 20.4646 11.512C20.342 11.416 20.2566 11.2747 20.2086 11.088C20.1606 10.9013 20.1526 10.672 20.1846 10.4ZM28.8246 4.752C29.1713 4.752 29.4193 4.67467 29.5686 4.52C29.7233 4.36533 29.8006 4.16 29.8006 3.904C29.8006 3.65333 29.7233 3.45067 29.5686 3.296C29.4193 3.136 29.1926 3.056 28.8886 3.056C28.6593 3.056 28.47 3.136 28.3206 3.296C28.1766 3.456 28.1046 3.66933 28.1046 3.936C28.1046 4.19733 28.1766 4.4 28.3206 4.544C28.4646 4.68267 28.6326 4.752 28.8246 4.752ZM25.9126 9.424C25.7526 9.424 25.6246 9.384 25.5286 9.304C25.4326 9.21867 25.3846 9.09333 25.3846 8.928C25.3846 8.78933 25.4326 8.67733 25.5286 8.592C25.6246 8.50667 25.7526 8.464 25.9126 8.464C26.0353 8.464 26.1366 8.50933 26.2166 8.6C26.302 8.69067 26.3446 8.78933 26.3446 8.896C26.3446 9.07733 26.2993 9.21067 26.2086 9.296C26.118 9.38133 26.0193 9.424 25.9126 9.424ZM30.7446 10.992C30.6913 10.992 30.6353 10.992 30.5766 10.992C30.5233 10.992 30.4673 10.992 30.4086 10.992C30.3126 10.992 30.2246 10.96 30.1446 10.896C30.0646 10.832 30.0246 10.6933 30.0246 10.48C30.0246 10.2933 30.0753 10.1707 30.1766 10.112C30.2833 10.048 30.3713 10.016 30.4406 10.016C30.4886 10.016 30.5393 10.016 30.5926 10.016C30.646 10.016 30.6966 10.016 30.7446 10.016C30.8833 10.0213 30.9873 10.08 31.0566 10.192C31.126 10.2987 31.1606 10.416 31.1606 10.544C31.1606 10.704 31.126 10.8187 31.0566 10.888C30.9873 10.9573 30.8833 10.992 30.7446 10.992ZM32.3051 10.432C32.3798 10.224 32.5078 9.872 32.6891 9.376C32.8705 8.87467 33.0785 8.30133 33.3131 7.656C33.5478 7.00533 33.7825 6.35733 34.0171 5.712C34.0385 5.664 34.0571 5.616 34.0731 5.568C34.0891 5.52 34.1051 5.47467 34.1211 5.432C34.1371 5.384 34.1531 5.336 34.1691 5.288C34.1958 5.224 34.2198 5.16 34.2411 5.096C34.2678 5.02667 34.2918 4.96 34.3131 4.896C34.3771 4.72533 34.4385 4.56 34.4971 4.4C34.5558 4.23467 34.6118 4.07733 34.6651 3.928C34.6865 3.88 34.7051 3.83467 34.7211 3.792C34.7371 3.744 34.7531 3.69867 34.7691 3.656C34.7851 3.608 34.8011 3.56267 34.8171 3.52C34.8438 3.44 34.8705 3.36533 34.8971 3.296C34.9291 3.22133 34.9558 3.14933 34.9771 3.08C35.0625 2.856 35.1291 2.67733 35.1771 2.544C35.2305 2.40533 35.2598 2.32533 35.2651 2.304C35.4358 1.86133 35.6918 1.53333 36.0331 1.32C36.3745 1.10133 36.7638 0.997333 37.2011 1.008C37.6598 1.01333 38.0545 1.13333 38.3851 1.368C38.7158 1.60267 38.9238 1.95733 39.0091 2.432C39.0198 2.496 39.0305 2.56 39.0411 2.624C39.0571 2.688 39.0678 2.752 39.0731 2.816C38.4331 2.88 38.0011 2.96533 37.7771 3.072C37.5531 3.17333 37.4411 3.31733 37.4411 3.504C37.4411 3.73333 37.5185 3.88267 37.6731 3.952C37.8331 4.016 38.0491 4.032 38.3211 4C38.5985 3.968 38.9131 3.92 39.2651 3.856C39.2971 4.016 39.3291 4.176 39.3611 4.336C39.3931 4.496 39.4198 4.656 39.4411 4.816C38.9451 4.88 38.5958 4.96267 38.3931 5.064C38.1958 5.16533 38.0971 5.31733 38.0971 5.52C38.0971 5.75467 38.1745 5.904 38.3291 5.968C38.4838 6.032 38.6785 6.048 38.9131 6.016C39.1478 5.97867 39.3878 5.92533 39.6331 5.856C39.7398 6.38933 39.8438 6.92267 39.9451 7.456C40.0465 7.98933 40.1451 8.52 40.2411 9.048C40.3371 9.576 40.4331 10.104 40.5291 10.632C40.6251 11.1547 40.7158 11.6747 40.8011 12.192C40.8598 12.4853 40.8278 12.712 40.7051 12.872C40.5825 13.0373 40.4331 13.12 40.2571 13.12C40.1238 13.12 39.9878 13.0693 39.8491 12.968C39.7105 12.8667 39.6011 12.7093 39.5211 12.496C39.0891 11.3013 38.6598 10.0693 38.2331 8.8C37.8065 7.52533 37.3878 6.32 36.9771 5.184C36.8651 4.86933 36.7531 4.64267 36.6411 4.504C36.5345 4.36 36.3851 4.288 36.1931 4.288C36.0118 4.288 35.8598 4.352 35.7371 4.48C35.6198 4.608 35.5158 4.848 35.4251 5.2C35.1798 6.14933 34.9371 7.11467 34.6971 8.096C34.4571 9.07733 34.2198 10.0213 33.9851 10.928C33.9051 11.2213 33.7798 11.4347 33.6091 11.568C33.4385 11.696 33.2598 11.76 33.0731 11.76C32.7318 11.76 32.4865 11.632 32.3371 11.376C32.1878 11.1147 32.1771 10.8 32.3051 10.432ZM33.9211 7.984L34.2251 6.976C34.4758 6.96533 34.7211 6.96 34.9611 6.96C35.2065 6.96 35.4518 6.96533 35.6971 6.976C36.0651 6.992 36.3398 7.03733 36.5211 7.112C36.7078 7.18667 36.8011 7.344 36.8011 7.584C36.8011 7.81333 36.7211 7.97067 36.5611 8.056C36.4011 8.136 36.0918 8.16533 35.6331 8.144C35.3451 8.128 35.0571 8.10667 34.7691 8.08C34.4865 8.048 34.2038 8.016 33.9211 7.984ZM34.0811 10.048C33.8358 10.016 33.6385 9.94933 33.4891 9.848C33.3398 9.74667 33.2651 9.616 33.2651 9.456C33.2651 9.20533 33.3611 9.048 33.5531 8.984C33.7505 8.92 33.9851 8.90133 34.2571 8.928C34.9558 8.98133 35.6865 9.04533 36.4491 9.12C37.2171 9.18933 37.9798 9.264 38.7371 9.344L39.0571 10.56C38.1611 10.48 37.2865 10.3973 36.4331 10.312C35.5851 10.2213 34.8011 10.1333 34.0811 10.048ZM34.5931 4.624C34.2358 4.47467 33.9478 4.344 33.7291 4.232C33.5158 4.11467 33.3611 4.00267 33.2651 3.896C33.1691 3.78933 33.1211 3.67467 33.1211 3.552C33.1211 3.30133 33.2118 3.14933 33.3931 3.096C33.5745 3.03733 33.8118 3.048 34.1051 3.128C34.4038 3.20267 34.7185 3.312 35.0491 3.456L34.5931 4.624ZM34.0331 6.48C33.6118 6.36267 33.2758 6.25867 33.0251 6.168C32.7798 6.07733 32.6038 5.98667 32.4971 5.896C32.3905 5.8 32.3371 5.69067 32.3371 5.568C32.3371 5.312 32.4278 5.15733 32.6091 5.104C32.7905 5.04533 33.0305 5.05333 33.3291 5.128C33.6331 5.19733 33.9638 5.296 34.3211 5.424L34.0331 6.48ZM38.5291 8.064L38.2891 6.864C38.5611 6.816 38.7798 6.79467 38.9451 6.8C39.1158 6.8 39.2385 6.85867 39.3131 6.976C39.3878 7.088 39.4251 7.28533 39.4251 7.568C39.4251 7.76533 39.3505 7.89067 39.2011 7.944C39.0518 7.99733 38.8278 8.03733 38.5291 8.064ZM39.1051 10.624L38.8651 9.344C39.1425 9.28533 39.3638 9.26133 39.5291 9.272C39.6945 9.28267 39.8145 9.352 39.8891 9.48C39.9638 9.608 40.0011 9.81867 40.0011 10.112C40.0011 10.3253 39.9265 10.4613 39.7771 10.52C39.6278 10.5733 39.4038 10.608 39.1051 10.624ZM42.168 10.976C42.104 10.192 42.0453 9.24533 41.992 8.136C41.9387 7.02133 41.912 5.808 41.912 4.496C41.912 4.128 41.9387 3.78667 41.992 3.472C42.0453 3.152 42.1253 2.85867 42.232 2.592C42.2587 2.528 42.2853 2.464 42.312 2.4C42.344 2.336 42.376 2.27467 42.408 2.216C42.44 2.16267 42.4693 2.112 42.496 2.064C42.528 2.016 42.5627 1.968 42.6 1.92C42.648 1.84533 42.7013 1.776 42.76 1.712C42.8187 1.648 42.8773 1.58667 42.936 1.528C42.984 1.48 43.0347 1.432 43.088 1.384C43.1413 1.336 43.1973 1.29333 43.256 1.256C43.3147 1.21333 43.376 1.17333 43.44 1.136C43.504 1.09333 43.5707 1.05333 43.64 1.016C43.9547 0.850666 44.304 0.728 44.688 0.648C45.0773 0.568 45.5067 0.528 45.976 0.528C46.5467 0.528 47.072 0.6 47.552 0.743999C48.0373 0.882666 48.456 1.096 48.808 1.384C49.1653 1.672 49.44 2.03733 49.632 2.48C49.8293 2.92267 49.928 3.44533 49.928 4.048C49.928 4.736 49.784 5.304 49.496 5.752C49.2133 6.2 48.8373 6.536 48.368 6.76C47.8987 6.97867 47.3893 7.088 46.84 7.088C46.2853 7.088 45.8107 6.99733 45.416 6.816C45.0213 6.62933 44.72 6.36533 44.512 6.024C44.304 5.67733 44.2 5.264 44.2 4.784C44.2 4.128 44.376 3.62667 44.728 3.28C45.08 2.928 45.5387 2.752 46.104 2.752C46.6587 2.752 47.0613 2.896 47.312 3.184C47.5627 3.472 47.688 3.79733 47.688 4.16C47.688 4.40533 47.6347 4.57867 47.528 4.68C47.4267 4.78133 47.288 4.832 47.112 4.832C46.936 4.832 46.8107 4.78133 46.736 4.68C46.6613 4.57333 46.6 4.45333 46.552 4.32C46.5093 4.18667 46.448 4.06933 46.368 3.968C46.2933 3.86133 46.1627 3.808 45.976 3.808C45.768 3.808 45.6133 3.88267 45.512 4.032C45.416 4.18133 45.368 4.37333 45.368 4.608C45.368 5.06133 45.512 5.40267 45.8 5.632C46.0933 5.856 46.4507 5.968 46.872 5.968C47.416 5.968 47.8587 5.816 48.2 5.512C48.5413 5.208 48.712 4.736 48.712 4.096C48.712 3.28533 48.456 2.68 47.944 2.28C47.4373 1.88 46.8027 1.68 46.04 1.68C45.2827 1.68 44.6827 1.81333 44.24 2.08C43.7973 2.34667 43.496 2.73867 43.336 3.256C43.176 3.77333 43.1387 4.40533 43.224 5.152C43.2987 5.76533 43.3627 6.248 43.416 6.6C43.4747 6.94667 43.5333 7.2 43.592 7.36C43.656 7.52 43.728 7.624 43.808 7.672C43.8933 7.72 43.9973 7.75467 44.12 7.776C44.376 7.81333 44.6347 7.85067 44.896 7.888C45.1573 7.92 45.4107 7.952 45.656 7.984C45.544 8.50133 45.52 8.872 45.584 9.096C45.648 9.31467 45.7947 9.424 46.024 9.424C46.2 9.424 46.3387 9.33867 46.44 9.168C46.5467 8.992 46.6267 8.66133 46.68 8.176C46.8667 8.192 47.048 8.216 47.224 8.248C47.4053 8.27467 47.576 8.304 47.736 8.336C47.544 9.23733 47.4667 9.86667 47.504 10.224C47.5467 10.576 47.72 10.752 48.024 10.752C48.1467 10.752 48.256 10.6933 48.352 10.576C48.4533 10.4587 48.5413 10.24 48.616 9.92C48.6907 9.59467 48.7547 9.12533 48.808 8.512C49.1067 8.57067 49.3573 8.66133 49.56 8.784C49.7627 8.90133 49.928 9.04267 50.056 9.208C50.184 9.368 50.2747 9.544 50.328 9.736C50.3867 9.928 50.416 10.128 50.416 10.336C50.416 11.0293 50.2507 11.584 49.92 12C49.5947 12.4213 49.0987 12.632 48.432 12.632C48.1547 12.632 47.8827 12.576 47.616 12.464C47.3547 12.3573 47.0907 12.2027 46.824 12C46.5573 11.8027 46.288 11.5707 46.016 11.304C45.744 11.032 45.464 10.7333 45.176 10.408C44.8933 10.0773 44.5947 9.73333 44.28 9.376C44.1467 9.22133 44.024 9.16267 43.912 9.2C43.8 9.23733 43.752 9.33333 43.768 9.488C43.8 9.76533 43.84 10.04 43.888 10.312C43.9413 10.584 43.9867 10.8533 44.024 11.12C44.072 11.52 44.0347 11.8133 43.912 12C43.7893 12.192 43.528 12.288 43.128 12.288C42.7867 12.288 42.552 12.1787 42.424 11.96C42.296 11.736 42.2107 11.408 42.168 10.976ZM42.84 11.776C42.7227 11.7813 42.632 11.7387 42.568 11.648C42.504 11.5573 42.472 11.4613 42.472 11.36C42.472 11.264 42.4987 11.1787 42.552 11.104C42.6053 11.024 42.6907 10.9813 42.808 10.976L42.84 11.776ZM42.632 10.416C42.52 10.416 42.4347 10.3707 42.376 10.28C42.3227 10.184 42.296 10.0853 42.296 9.984C42.296 9.86133 42.328 9.752 42.392 9.656C42.456 9.55467 42.552 9.504 42.68 9.504L42.632 10.416ZM49.352 11.568C49.2187 11.568 49.112 11.5307 49.032 11.456C48.9573 11.3813 48.92 11.2853 48.92 11.168C48.92 10.9813 48.9573 10.848 49.032 10.768C49.112 10.6827 49.208 10.64 49.32 10.64C49.5067 10.64 49.64 10.68 49.72 10.76C49.8053 10.8347 49.848 10.928 49.848 11.04C49.848 11.2053 49.8027 11.336 49.712 11.432C49.6267 11.5227 49.5067 11.568 49.352 11.568ZM54.529 11.872C54.257 11.872 54.001 11.8373 53.761 11.768C53.521 11.6933 53.329 11.584 53.185 11.44C53.0997 11.3547 53.0277 11.2613 52.969 11.16C52.9157 11.0533 52.873 10.9413 52.841 10.824C52.8143 10.7013 52.793 10.576 52.777 10.448C52.7663 10.32 52.7637 10.192 52.769 10.064C53.569 10.2613 54.1583 10.344 54.537 10.312C54.9157 10.2747 55.105 10.112 55.105 9.824C55.105 9.58933 54.945 9.42933 54.625 9.344C54.305 9.25867 53.713 9.18933 52.849 9.136C52.8597 9.008 52.8703 8.85867 52.881 8.688C52.897 8.51733 52.913 8.368 52.929 8.24C53.4303 8.256 53.8277 8.25333 54.121 8.232C54.4143 8.20533 54.6223 8.14667 54.745 8.056C54.873 7.96 54.9343 7.81867 54.929 7.632C54.9237 7.47733 54.8543 7.36533 54.721 7.296C54.5877 7.22133 54.3823 7.17867 54.105 7.168C53.833 7.15733 53.4837 7.168 53.057 7.2C53.1637 6.448 53.2623 5.74933 53.353 5.104C53.4437 4.45333 53.537 3.824 53.633 3.216C53.681 2.93867 53.641 2.75733 53.513 2.672C53.385 2.58667 53.2063 2.55467 52.977 2.576C52.7477 2.59733 52.497 2.63467 52.225 2.688C51.9583 2.74133 51.7023 2.77067 51.457 2.776C51.217 2.78133 51.017 2.72533 50.857 2.608C50.7023 2.48533 50.625 2.26133 50.625 1.936C50.625 1.76 50.6677 1.616 50.753 1.504C50.8437 1.392 50.9743 1.30667 51.145 1.248C51.321 1.184 51.5317 1.136 51.777 1.104C51.8357 1.09333 51.8997 1.08533 51.969 1.08C52.0383 1.06933 52.1103 1.06133 52.185 1.056C52.2917 1.04533 52.385 1.03467 52.465 1.024C52.5503 1.008 52.6277 0.997333 52.697 0.992C52.8943 0.965333 53.081 0.941333 53.257 0.919999C53.4383 0.898666 53.6357 0.874666 53.849 0.848C53.8863 0.842666 53.9237 0.837333 53.961 0.832C54.0037 0.826666 54.0463 0.821333 54.089 0.815999C54.137 0.810666 54.1823 0.805333 54.225 0.799999C54.273 0.794666 54.3183 0.789333 54.361 0.783999C54.409 0.778666 54.4517 0.773333 54.489 0.768C54.5317 0.762666 54.5663 0.759999 54.593 0.759999C55.1797 0.690666 55.6943 0.637333 56.137 0.599999C56.585 0.557333 56.9557 0.543999 57.249 0.559999C57.5477 0.576 57.7717 0.629333 57.921 0.719999C58.0703 0.810666 58.145 0.954666 58.145 1.152C58.145 1.34933 58.0597 1.504 57.889 1.616C57.7237 1.72267 57.5077 1.80533 57.241 1.864C56.9797 1.92267 56.705 1.97333 56.417 2.016C56.129 2.05867 55.8623 2.11467 55.617 2.184C55.3717 2.248 55.1823 2.34133 55.049 2.464C54.9157 2.58667 54.8757 2.75733 54.929 2.976C55.169 3.95733 55.401 4.83467 55.625 5.608C55.849 6.38133 56.0437 7.06933 56.209 7.672C56.3743 8.26933 56.489 8.79733 56.553 9.256C56.6223 9.70933 56.617 10.1093 56.537 10.456C56.4623 10.7973 56.2943 11.0987 56.033 11.36C55.857 11.536 55.633 11.6667 55.361 11.752C55.0943 11.832 54.817 11.872 54.529 11.872ZM54.225 2.016C54.097 2.016 53.9957 1.984 53.921 1.92C53.8463 1.856 53.809 1.76533 53.809 1.648C53.809 1.52533 53.8437 1.42933 53.913 1.36C53.9877 1.28533 54.081 1.248 54.193 1.248C54.3157 1.248 54.409 1.28267 54.473 1.352C54.5423 1.416 54.577 1.49333 54.577 1.584C54.577 1.71733 54.5423 1.824 54.473 1.904C54.4037 1.97867 54.321 2.016 54.225 2.016ZM55.025 11.568L55.121 10.352C55.297 10.3733 55.441 10.4027 55.553 10.44C55.6703 10.4773 55.7557 10.5333 55.809 10.608C55.8677 10.6773 55.897 10.7787 55.897 10.912C55.897 11.12 55.865 11.272 55.801 11.368C55.737 11.464 55.641 11.5253 55.513 11.552C55.385 11.5733 55.2223 11.5787 55.025 11.568ZM55.137 5.056L54.849 6.112C54.6943 6.06933 54.569 6.02667 54.473 5.984C54.377 5.94133 54.3077 5.888 54.265 5.824C54.2223 5.76 54.201 5.68267 54.201 5.592C54.201 5.37333 54.2383 5.22133 54.313 5.136C54.3877 5.05067 54.4943 5.008 54.633 5.008C54.7717 5.00267 54.9397 5.01867 55.137 5.056Z" fill="url(#paint0_linear_1_3)"/>
<defs>
<linearGradient id="paint0_linear_1_3" x1="29.5" y1="-5" x2="29.5" y2="16" gradientUnits="userSpaceOnUse">
<stop stop-color="#8034ED"/>
<stop offset="1" stop-color="#B7A1D7"/>
</linearGradient>
</defs>
</svg>
